<svg width="161" height="24" viewBox="0 0 161 24" fill="none" xmlns="http://www.w3.org/2000/svg">
<path fill-rule="evenodd" clip-rule="evenodd" d="M5.91536 0.622985C5.54218 0.836013 5.00753 1.22417 4.72725 1.48555L4.21767 1.9608L4.66773 1.99799C4.99993 2.02531 5.26416 1.94535 5.67762 1.69205C6.28653 1.31886 7.0127 1.033 7.10835 1.12876C7.25401 1.27431 6.71675 1.93917 5.11612 3.59397C4.17264 4.56929 3.10334 5.59594 2.7399 5.87526C2.0925 6.37285 0.831559 7.08048 0.831559 6.94635C0.831559 6.90904 1.03793 6.57387 1.29005 6.20176C1.8449 5.38303 2.25729 4.58997 2.25729 4.34177C2.25729 3.7369 1.20819 4.77127 0.892271 5.68754C0.787955 5.99027 0.621738 6.85284 0.523006 7.60432C0.424274 8.3558 0.266256 9.3449 0.171801 9.80233C0.077346 10.2597 2.45309e-08 10.7717 2.45309e-08 10.9401C-0.000118787 11.2506 0.431403 11.7627 0.693263 11.7627C0.772153 11.7627 0.895123 11.891 0.966647 12.048C1.07132 12.2776 1.03603 12.5148 0.785816 13.2661C0.308552 14.6992 0.347166 14.9932 1.11884 15.8023C1.81971 16.537 2.083 17.1857 1.95563 17.8644C1.91488 18.0817 1.94078 18.4795 2.01313 18.7482C2.32062 19.8902 3.2837 20.4076 4.83953 20.2666C5.94994 20.166 6.23295 20.3116 6.32978 21.0334C6.40594 21.6009 6.73754 22.0079 7.42557 22.3781C7.842 22.6022 8.06656 22.6308 9.23946 22.6089L10.578 22.5839L10.8434 22.9937C11.4403 23.9158 12.892 24.0846 14.5355 23.4232L15.4673 23.0481L15.7912 23.3949C16.0217 23.6416 16.2776 23.766 16.6783 23.8261C17.1769 23.9008 17.3401 23.862 18.0968 23.4879C19.8548 22.6191 22.3896 20.1505 23.2297 18.4893C23.7457 17.4688 23.7565 17.0468 23.2822 16.4499C22.8718 15.9335 22.8758 15.8391 23.3682 14.3806C23.7506 13.2482 23.697 12.7547 23.1225 12.1189C22.5361 11.4697 22.4915 11.1817 22.8084 10.0851C23.0024 9.41381 23.064 8.9457 23.0295 8.40416C22.9674 7.42872 22.6739 7.00789 21.812 6.65799C20.9764 6.31891 20.8677 6.04814 21.0498 4.76046C21.1221 4.24934 21.1463 3.69187 21.1036 3.52186C20.8876 2.66095 19.3515 1.66377 18.2415 1.66377C17.563 1.66377 17.1962 1.45454 16.5227 0.683579C16.1516 0.25871 16.0994 0.238037 15.3992 0.238037C14.9694 0.238037 14.3845 0.336531 13.9887 0.475659C13.1228 0.780053 12.3889 0.780053 11.9998 0.475659C11.7521 0.281878 11.511 0.242908 10.5485 0.240651C9.43372 0.238156 9.38037 0.250275 8.98829 0.59447C8.4856 1.03585 8.34291 1.04191 8.29479 0.624173C8.2582 0.305878 8.23574 0.296611 7.42557 0.266552C6.67504 0.238631 6.52772 0.273443 5.91536 0.622985ZM11.0493 1.31565C11.0493 1.66912 10.4276 2.52883 9.37205 3.63508C8.72358 4.3148 8.41705 4.73634 8.32628 5.07365C8.16173 5.68445 6.7348 7.07276 4.57328 8.72483C1.27722 11.2442 0.317107 11.5534 1.17005 9.82086C1.74331 8.65639 2.98691 7.34294 6.47889 4.21405C8.55143 2.35691 9.33094 1.7423 10.0376 1.40797C10.8896 1.00496 11.0493 0.990349 11.0493 1.31565ZM15.64 1.72341C15.8525 2.27707 15.318 2.89014 12.7676 5.01745C10.7217 6.72381 10.1917 7.3667 10.8309 7.3667C10.9722 7.3667 11.324 7.22829 11.6126 7.05922C11.9012 6.89003 12.1687 6.78322 12.2072 6.82171C12.3024 6.91676 9.19871 10.0434 8.01963 11.0401C6.64427 12.2029 6.20396 12.4749 5.82067 12.3981C5.55109 12.3443 5.35208 12.462 4.5911 13.1257C4.09162 13.5613 3.68302 13.9624 3.68302 14.0171C3.68302 14.2018 2.57547 14.8518 2.26074 14.8518C0.869103 14.8518 2.04379 12.4602 3.91958 11.4745C5.16365 10.8208 6.46463 9.79163 8.33234 7.98416C10.3237 6.05681 11.6423 4.5163 12.0647 3.62356C12.4816 2.74222 13.1866 2.22907 14.6136 1.76856C15.4277 1.50587 15.5545 1.50029 15.64 1.72341ZM18.9448 3.72431C19.1544 3.87746 19.1507 3.91061 18.8531 4.56062C17.2962 7.96159 11.5869 13.9107 6.923 16.9924C5.4406 17.9718 4.16219 18.6303 3.55174 18.7288C3.18164 18.7887 3.11416 18.7628 3.05546 18.5386C2.9622 18.1818 3.44493 16.6261 3.67542 16.5408C3.7776 16.5029 4.58302 16.0756 5.46519 15.5912C9.26215 13.5058 13.6276 9.45124 16.0666 5.74493C17.3255 3.83183 18.2267 3.19916 18.9448 3.72431ZM21.2418 8.436C21.3205 9.3954 19.1131 12.2509 15.7652 15.5206C13.2095 18.0164 11.4502 19.4139 9.7507 20.2979C7.84676 21.2881 7.14161 21.3789 7.47143 20.5911C7.75919 19.9036 8.97558 18.7742 11.3463 16.993C13.8637 15.1017 14.9212 14.0726 18.1186 10.4041C20.1742 8.04535 21.1588 7.42492 21.2418 8.436ZM22.0987 13.2916C22.0987 13.8588 20.599 15.8611 18.7167 17.8069C16.5765 20.0192 14.4397 21.6464 12.811 22.3043C11.3267 22.9039 11.7369 22.2326 14.0134 20.3366C14.7683 19.7078 16.6958 17.889 18.2968 16.2948C21.6248 12.9805 22.0987 12.6063 22.0987 13.2916ZM22.3364 17.6235C22.3364 18.2174 20.3384 20.3751 18.5234 21.7414C15.7581 23.8231 15.6979 23.5881 18.3265 20.9726C20.2014 19.1068 22.0309 17.4656 22.2357 17.4656C22.2911 17.4656 22.3364 17.5367 22.3364 17.6235Z" fill="white"/>
<path d="M150.629 17.4647H148.547L153.195 6.51416H155.377L160.125 17.4647H157.943L156.694 14.4782H153.057L153.754 12.7169H155.959L154.236 8.60472L150.629 17.4647Z" fill="white"/>
<path d="M138.591 6.51416H140.774L143.852 11.7903L146.747 6.51416H148.853L144.825 13.6359V17.4647H142.796V13.6359L138.591 6.51416Z" fill="white"/>
<path d="M137.246 6.51416V17.4647H135.216V6.51416H137.246Z" fill="white"/>
<path d="M125.222 17.0057V15.1678C126.32 15.5762 127.561 15.7804 128.944 15.7804C130.624 15.7804 131.463 15.2189 131.463 14.0957C131.463 13.2789 130.948 12.8705 129.917 12.8705H128.201C125.96 12.8705 124.839 11.8495 124.839 9.80739C124.839 7.56112 126.435 6.43799 129.626 6.43799C130.851 6.43799 132.012 6.61667 133.11 6.97403V8.81189C132.012 8.40348 130.851 8.19927 129.626 8.19927C127.788 8.19927 126.869 8.73531 126.869 9.80739C126.869 10.6242 127.313 11.0326 128.201 11.0326H129.917C132.301 11.0326 133.493 12.0537 133.493 14.0957C133.493 16.3931 131.976 17.5417 128.944 17.5417C127.561 17.5417 126.32 17.363 125.222 17.0057Z" fill="white"/>
<path d="M114.577 17.4647H112.494L117.142 6.51416H119.324L124.072 17.4647H121.89L120.642 14.4782H117.004L117.701 12.7169H119.906L118.183 8.60472L114.577 17.4647Z" fill="white"/>
<path d="M112.295 6.51416V8.27544H109.155V17.4647H107.126V8.27544H103.986V6.51416H112.295Z" fill="white"/>
<path d="M94.3003 17.4647H92.2174L96.8657 6.51416H99.0481L103.796 17.4647H101.613L100.365 14.4782H96.7278L97.4247 12.7169H99.6301L97.9071 8.60472L94.3003 17.4647Z" fill="white"/>
<path d="M83.1814 17.0057V15.1678C84.279 15.5762 85.5195 15.7804 86.903 15.7804C88.5826 15.7804 89.4224 15.2189 89.4224 14.0957C89.4224 13.2789 88.9068 12.8705 87.8755 12.8705H86.1602C83.919 12.8705 82.7985 11.8495 82.7985 9.80739C82.7985 7.56112 84.3938 6.43799 87.5845 6.43799C88.8098 6.43799 89.9712 6.61667 91.0688 6.97403V8.81189C89.9712 8.40348 88.8098 8.19927 87.5845 8.19927C85.7467 8.19927 84.8278 8.73531 84.8278 9.80739C84.8278 10.6242 85.2719 11.0326 86.1602 11.0326H87.8755C90.2597 11.0326 91.4517 12.0537 91.4517 14.0957C91.4517 16.3931 89.9355 17.5417 86.903 17.5417C85.5195 17.5417 84.279 17.363 83.1814 17.0057Z" fill="white"/>
<path d="M68.1617 17.4647V6.51416H70.191V11.0322H75.5898V6.51416H77.6191V17.4647H75.5898V12.7935H70.191V17.4647H68.1617Z" fill="white"/>
<path d="M58.1706 17.0057V15.1678C59.2682 15.5762 60.5088 15.7804 61.8923 15.7804C63.5719 15.7804 64.4117 15.2189 64.4117 14.0957C64.4117 13.2789 63.896 12.8705 62.8648 12.8705H61.1495C58.9083 12.8705 57.7877 11.8495 57.7877 9.80739C57.7877 7.56112 59.3831 6.43799 62.5738 6.43799C63.799 6.43799 64.9605 6.61667 66.0581 6.97403V8.81189C64.9605 8.40348 63.799 8.19927 62.5738 8.19927C60.736 8.19927 59.817 8.73531 59.817 9.80739C59.817 10.6242 60.2612 11.0326 61.1495 11.0326H62.8648C65.2489 11.0326 66.441 12.0537 66.441 14.0957C66.441 16.3931 64.9247 17.5417 61.8923 17.5417C60.5088 17.5417 59.2682 17.363 58.1706 17.0057Z" fill="white"/>
<path d="M56.0582 6.51416V17.4647H54.0289V6.51416H56.0582Z" fill="white"/>
<path d="M43.8717 17.4494V6.51416H48.8492C51.0853 6.51416 52.2033 7.4918 52.2033 9.44708C52.2033 10.7693 51.3329 11.8644 49.592 12.7322L53.061 17.4647H50.5033L47.1722 12.694V11.7674C49.1122 11.4355 50.0821 10.6825 50.0821 9.50834C50.0821 8.70172 49.6278 8.29841 48.7191 8.29841H45.9393V17.4494H43.8717Z" fill="white"/>
<path d="M34.9059 6.51416V17.4647H32.8766V6.51416H34.9059ZM42.6096 6.51416L37.9384 11.6219L43.0997 17.4647H40.2893L36.0546 12.3494V11.0322L40.1285 6.51416H42.6096Z" fill="white"/>
<path d="M35.5281 0.653461C35.5281 0.292564 35.8207 0 36.1816 0H155.349C155.71 0 156.003 0.292564 156.003 0.653461C156.003 1.01436 155.71 1.30692 155.349 1.30692H36.1816C35.8207 1.30692 35.5281 1.01436 35.5281 0.653461Z" fill="white"/>
<path d="M35.5281 23.3468C35.5281 22.9859 35.8207 22.6934 36.1816 22.6934H155.349C155.71 22.6934 156.003 22.9859 156.003 23.3468C156.003 23.7077 155.71 24.0003 155.349 24.0003H36.1816C35.8207 24.0003 35.5281 23.7077 35.5281 23.3468Z" fill="white"/>
</svg>
